<!DOCTYPE svg PUBLIC "-//W3C//DTD SVG 1.1//EN" "http://www.w3.org/Graphics/SVG/1.1/DTD/svg11.dtd">
<!-- Uploaded to: SVG Repo, www.svgrepo.com, Transformed by: SVG Repo Mixer Tools -->
<svg width="227px" height="227px" viewBox="-1.76 -1.76 19.52 19.52" fill="none" xmlns="http://www.w3.org/2000/svg" stroke="#000000" stroke-width="0.00016" transform="rotate(0)matrix(1, 0, 0, -1, 0, 0)">
<g id="SVGRepo_bgCarrier" stroke-width="0" transform="translate(0,0), scale(1)">
<path transform="translate(-1.76, -1.76), scale(0.61)" d="M16,30.80032861298498C18.58451216976227,30.42625492054098,19.180291161303856,26.718087052673532,21.343280669740018,25.254833599090368C23.283015456957173,23.94261104074657,26.086358743979496,24.40699050275406,27.803943272001305,22.81500982558903C29.712132757498384,21.04636278684355,31.75749462382079,18.56614342212286,31.32830073136617,16C30.884564773059537,13.34690979860963,27.78692992046313,12.11278362875549,25.725034683552728,10.38524860757239C24.26388028448248,9.161037333127657,22.68195482825408,8.236396624972599,20.997351246283337,7.344333738169615C19.371823363714316,6.48355372379562,17.734936126773498,5.84643208580824,16,5.2354658296441325C13.47526359964499,4.3463675380575575,10.913999351812468,1.876100163812786,8.4519611094147,2.9264131440004295C6.087729079469556,3.9350016973644104,6.02166718040713,7.349162432353411,5.2778537080423575,9.8095659520477C4.66559549729128,11.834807914800056,4.038048194340887,13.9351997419714,4.4996378592708535,15.999999999999998C4.926128239535659,17.907792817135746,6.892458426458597,19.00838876993238,7.729225379427753,20.775133953594104C8.668265887895554,22.757818964888873,8.28617530505247,25.250354267659326,9.682282513445786,26.94260767457823C11.279751788150271,28.878936637221436,13.515652421736188,31.159904815716086,16,30.80032861298498" fill="#7ed0ec" strokewidth="0"/>
</g>
<g id="SVGRepo_tracerCarrier" stroke-linecap="round" stroke-linejoin="round" stroke="#CCCCCC" stroke-width="0.192"/>
<g id="SVGRepo_iconCarrier"> <path d="M5.46447 4.46447C3.51184 6.41709 3.51184 9.58291 5.46447 11.5355C7.41709 13.4882 10.5829 13.4882 12.5355 11.5355L14.6569 13.6569C11.5327 16.781 6.46734 16.781 3.34315 13.6569C0.218951 10.5327 0.218951 5.46734 3.34315 2.34315C6.46734 -0.781049 11.5327 -0.781049 14.6569 2.34315L12.5355 4.46447C10.5829 2.51184 7.41709 2.51184 5.46447 4.46447Z" fill="#000000"/> </g>
</svg>